<?xml version="1.0" encoding="utf-8"?>
<!-- Generator: Adobe Illustrator 27.3.1, SVG Export Plug-In . SVG Version: 6.00 Build 0)  -->
<svg version="1.1" id="Layer_1" xmlns="http://www.w3.org/2000/svg" xmlns:xlink="http://www.w3.org/1999/xlink" x="0px" y="0px"
	 viewBox="0 0 197.42 177.75" style="enable-background:new 0 0 197.42 177.75;" xml:space="preserve">
<style type="text/css">
	.st0{fill:#231F20;}
</style>
<g>
	<path class="st0" d="M16.39,0.57h3.08v17.39h23.94V0.57h3.08v39.9h-3.08V20.81H19.47v19.67h-3.08V0.57z"/>
	<path class="st0" d="M81.66,20.86H61.31v16.76H83.6l-0.46,2.85H58.23V0.57h24.46v2.85H61.31v14.59h20.35V20.86z"/>
	<path class="st0" d="M91.47,0.57h3.08v37.05h21.43l-0.57,2.85H91.47V0.57z"/>
	<path class="st0" d="M122.14,0.57h3.08v37.05h21.44l-0.57,2.85h-23.94V0.57z"/>
	<path class="st0" d="M185.13,20.24c0,10.89-5.81,20.81-18.13,20.81c-11.23,0-17.79-9.06-17.79-20.52C149.22,9.23,155.54,0,167.4,0
		C178.35,0,185.13,8.61,185.13,20.24z M152.52,20.35c0,9.18,5.07,17.84,14.65,17.84c10.32,0,14.65-8.44,14.65-17.9
		c0-9.29-4.9-17.44-14.54-17.44C157.03,2.85,152.52,11.34,152.52,20.35z"/>
	<path class="st0" d="M11.06,108.88L0,68.98h3.19c2.68,9.58,8.72,31.64,9.63,36.31h0.06c0.74-3.71,7.3-25.77,10.09-36.31h3.42
		c2.62,9.75,9.01,33.18,9.63,36.26h0.06c1.25-5.64,7.92-26.74,10.66-36.26h3.14l-12.2,39.9h-3.53c-2.62-9.41-8.84-32.49-9.52-35.91
		h-0.06c-1.03,5.19-7.18,26-10.03,35.91H11.06z"/>
	<path class="st0" d="M90.13,88.65c0,10.89-5.81,20.81-18.13,20.81c-11.23,0-17.79-9.06-17.79-20.52c0-11.29,6.33-20.52,18.19-20.52
		C83.34,68.41,90.13,77.02,90.13,88.65z M57.52,88.76c0,9.18,5.07,17.84,14.65,17.84c10.32,0,14.65-8.44,14.65-17.9
		c0-9.29-4.9-17.44-14.54-17.44C62.02,71.26,57.52,79.75,57.52,88.76z"/>
	<path class="st0" d="M102.04,90.24v18.64h-3.14v-39.9h14.31c7.87,0,12.03,4.22,12.03,10.49c0,5.07-3.02,8.38-7.47,9.35
		c4.1,0.97,6.84,3.65,6.84,10.43v1.54c0,2.79-0.23,6.56,0.51,8.1H122c-0.74-1.71-0.57-4.9-0.57-8.32v-1.03
		c0-6.56-1.94-9.29-9.58-9.29H102.04z M102.04,87.39h9.63c7.01,0,10.26-2.62,10.26-7.87c0-4.9-3.19-7.7-9.41-7.7h-10.49V87.39z"/>
	<path class="st0" d="M134.99,68.98h3.08v37.05h21.43l-0.57,2.85h-23.94V68.98z"/>
	<path class="st0" d="M165.66,68.98h13.23c10.95,0,18.53,7.64,18.53,19.61c0,11.91-7.41,20.29-18.58,20.29h-13.17V68.98z
		 M168.74,106.03h9.63c10.55,0,15.73-7.41,15.73-17.27c0-8.78-4.67-16.93-15.73-16.93h-9.63V106.03z"/>
	<path class="st0" d="M21.29,137.39v39.9h-3.08v-39.9H21.29z"/>
	<path class="st0" d="M67.58,158.94c0-7.81,0.06-15.28,0.23-19.27h-0.17c-1.6,5.36-9.69,25.03-14.76,37.62h-3.02
		c-3.82-9.75-12.2-31.64-14.02-37.68h-0.11c0.29,4.56,0.4,13.85,0.4,20.69v16.99h-3.08v-39.9h4.62
		c5.47,13.68,12.37,31.58,13.85,36.09h0.11c0.91-2.91,8.89-22.8,14.48-36.09h4.56v39.9h-3.08V158.94z"/>
	<path class="st0" d="M85.94,163.5l-5.07,13.8h-3.14l14.65-39.9h3.65l15.28,39.9h-3.36l-5.19-13.8H85.94z M101.73,160.65
		c-4.45-11.86-6.73-17.56-7.52-20.24h-0.06c-0.97,3.02-3.53,10.09-7.13,20.24H101.73z"/>
	<path class="st0" d="M148.53,177.29h-2.57c-0.23-0.46-0.34-2.51-0.4-6.38c-1.43,2.74-4.56,6.84-12.88,6.84
		c-11.46,0-17.33-8.72-17.33-20.07c0-11.91,6.27-20.86,17.96-20.86c8.61,0,14.31,4.5,15.56,11.86h-3.08
		c-1.71-5.64-5.64-9.01-12.6-9.01c-9.98,0-14.54,7.75-14.54,17.84c0,9.12,4.39,17.39,14.14,17.39c9.98,0,12.77-6.5,12.77-15.33
		v-0.46h-12.88v-2.85h15.85V177.29z"/>
	<path class="st0" d="M182.28,157.68h-20.35v16.76h22.29l-0.46,2.85h-24.91v-39.9h24.46v2.85h-21.38v14.59h20.35V157.68z"/>
</g>
</svg>
